P2
# CelullarSpace load from pgm.
10 10
3
1 1 1 1 2 2 2 3 3 3
1 1 1 2 2 2 3 3 3 3
1 1 2 2 2 3 3 3 3 3
3 3 2 2 3 3 3 3 3 3
1 3 3 3 3 3 3 3 3 3
1 1 1 3 3 3 3 3 3 3
2 2 2 2 2 2 2 2 3 3
3 3 3 3 3 3 3 3 3 3
3 3 3 3 2 2 3 3 3 3
3 3 3 3 2 2 2 2 3 3

